<?xml version="1.0" standalone="no"?>
<!DOCTYPE svg PUBLIC "-//W3C//DTD SVG 20010904//EN"
 "http://www.w3.org/TR/2001/REC-SVG-20010904/DTD/svg10.dtd">
<svg version="1.0" xmlns="http://www.w3.org/2000/svg"
 width="100.000000pt" height="100.000000pt" viewBox="0 0 100.000000 100.000000"
 preserveAspectRatio="xMidYMid meet">

<g transform="translate(0.000000,100.000000) scale(0.100000,-0.100000)"
fill="#000000" stroke="none">
<path d="M320 740 c-19 -19 -20 -33 -20 -240 0 -207 1 -221 20 -240 18 -18 33
-20 190 -20 225 0 210 -15 210 213 l0 173 -68 67 -68 67 -122 0 c-109 0 -124
-2 -142 -20z m250 -40 c0 -37 5 -55 20 -70 15 -15 33 -20 70 -20 l50 0 0 -160
c0 -212 12 -200 -200 -200 -216 0 -200 -20 -200 250 0 263 -8 250 150 250
l110 0 0 -50z m75 -20 l59 -60 -46 0 c-60 0 -78 18 -78 76 0 24 1 44 3 44 1 0
29 -27 62 -60z"/>
<path d="M450 656 c0 -2 9 -6 20 -9 11 -3 18 -1 14 4 -5 9 -34 13 -34 5z"/>
<path d="M424 619 c-3 -6 -1 -16 5 -22 8 -8 11 -7 11 5 0 9 6 19 13 21 7 3 6
6 -5 6 -9 1 -20 -4 -24 -10z"/>
<path d="M497 624 c-4 -4 -7 -14 -7 -23 0 -11 3 -12 11 -4 6 6 10 16 7 23 -2
6 -7 8 -11 4z"/>
<path d="M423 528 c-40 -19 -25 -28 45 -28 l67 1 -24 19 c-26 22 -54 24 -88 8z"/>
</g>
</svg>
